<?xml version="1.0" encoding="utf-8"?>
<!-- Generator: Adobe Illustrator 24.0.1, SVG Export Plug-In . SVG Version: 6.00 Build 0)  -->
<svg version="1.1" id="Layer_1" xmlns="http://www.w3.org/2000/svg" xmlns:xlink="http://www.w3.org/1999/xlink" x="0px" y="0px"
	 viewBox="0 0 256 256" style="enable-background:new 0 0 256 256;" xml:space="preserve">
<style type="text/css">
	.st0{fill-rule:evenodd;clip-rule:evenodd;fill:#C51F33;}
	.st1{fill-rule:evenodd;clip-rule:evenodd;}
	.st2{fill-rule:evenodd;clip-rule:evenodd;fill:#C51E33;}
	.st3{fill-rule:evenodd;clip-rule:evenodd;fill:#FFFFFF;}
	.st4{fill-rule:evenodd;clip-rule:evenodd;fill:#232020;}
	.st5{fill-rule:evenodd;clip-rule:evenodd;fill:#FFFFFE;}
</style>
<g>
	<path class="st0" d="M73.1,137.7v-11.9c0-0.6,0-1.2-0.2-1.7c-0.1-0.6-0.3-1-0.5-1.5c-0.2-0.4-0.6-0.8-1-1c-0.4-0.2-1-0.4-1.6-0.4
		c-0.6,0-1.2,0.1-1.7,0.4c-0.5,0.2-0.9,0.6-1.2,1c-0.3,0.4-0.6,0.9-0.7,1.5c-0.2,0.6-0.2,1.2-0.2,1.8v11.8h-7.2V116h7v3h0.1
		c0.3-0.5,0.6-0.9,1-1.4c0.4-0.5,0.9-0.8,1.5-1.2c0.6-0.3,1.2-0.6,1.9-0.8c0.7-0.2,1.4-0.3,2.1-0.3c1.5,0,2.7,0.3,3.7,0.8
		c1,0.5,1.9,1.2,2.5,2c0.6,0.8,1.1,1.8,1.4,2.9c0.3,1.1,0.4,2.1,0.4,3.2v13.5L73.1,137.7 M84.8,137.7H92V116h-7.2V137.7z M92.5,109
		c0,0.6-0.1,1.1-0.3,1.5c-0.2,0.5-0.5,0.9-0.9,1.2c-0.4,0.3-0.8,0.6-1.3,0.8c-0.5,0.2-1,0.3-1.6,0.3c-1.2,0-2.2-0.4-2.9-1.2
		c-0.8-0.8-1.2-1.7-1.2-2.8c0-0.5,0.1-1,0.3-1.5c0.2-0.5,0.5-0.9,0.9-1.2c0.4-0.4,0.8-0.6,1.3-0.9c0.5-0.2,1-0.3,1.6-0.3
		c0.6,0,1.1,0.1,1.6,0.3c0.5,0.2,1,0.5,1.3,0.8c0.4,0.4,0.7,0.8,0.9,1.2C92.4,108,92.5,108.5,92.5,109z M110.9,137.7v-11.9
		c0-0.6-0.1-1.2-0.2-1.7c-0.1-0.6-0.3-1-0.5-1.5c-0.2-0.4-0.6-0.8-1-1c-0.4-0.2-1-0.4-1.6-0.4c-0.6,0-1.2,0.1-1.7,0.4
		c-0.5,0.2-0.9,0.6-1.2,1c-0.3,0.4-0.6,0.9-0.7,1.5c-0.2,0.6-0.2,1.2-0.2,1.8v11.8h-7.2V116h7v3h0.1c0.3-0.5,0.6-0.9,1-1.4
		c0.4-0.5,0.9-0.8,1.5-1.2c0.6-0.3,1.2-0.6,1.9-0.8c0.7-0.2,1.4-0.3,2.2-0.3c1.5,0,2.7,0.3,3.7,0.8c1,0.5,1.9,1.2,2.5,2
		c0.6,0.8,1.1,1.8,1.4,2.9c0.3,1.1,0.4,2.2,0.4,3.2v13.5L110.9,137.7 M130.5,109c0,0.6-0.1,1.1-0.3,1.5c-0.2,0.5-0.5,0.9-0.9,1.2
		c-0.4,0.3-0.8,0.6-1.3,0.8c-0.5,0.2-1,0.3-1.6,0.3c-1.2,0-2.2-0.4-2.9-1.2c-0.8-0.8-1.2-1.7-1.2-2.8c0-0.5,0.1-1,0.3-1.5
		c0.2-0.5,0.5-0.9,0.9-1.2c0.4-0.4,0.8-0.6,1.3-0.9c0.5-0.2,1-0.3,1.6-0.3c0.6,0,1.1,0.1,1.6,0.3c0.5,0.2,1,0.5,1.3,0.8
		c0.4,0.4,0.7,0.8,0.9,1.2C130.4,108,130.5,108.5,130.5,109 M129.9,138.3c0,1.3-0.1,2.6-0.4,3.8c-0.2,1.2-0.7,2.3-1.3,3.2
		c-0.6,0.9-1.5,1.6-2.7,2.1c-1.1,0.5-2.6,0.8-4.3,0.8c-0.5,0-1,0-1.6-0.1c-0.6-0.1-1.1-0.1-1.5-0.3l0.5-6c0.3,0.1,0.5,0.1,0.8,0.2
		c0.3,0,0.5,0,0.7,0c1.1,0,1.8-0.4,2.1-1.1c0.4-0.7,0.5-1.6,0.5-2.7V116h7.2L129.9,138.3 M147.4,128.3h-0.9c-0.8,0-1.6,0-2.4,0.1
		c-0.8,0.1-1.5,0.2-2.2,0.4c-0.6,0.2-1.1,0.5-1.6,0.9c-0.4,0.4-0.6,0.9-0.6,1.5c0,0.4,0.1,0.8,0.3,1c0.2,0.3,0.4,0.5,0.7,0.7
		c0.3,0.2,0.6,0.3,1,0.4c0.4,0.1,0.7,0.1,1.1,0.1c1.5,0,2.6-0.4,3.4-1.2c0.8-0.8,1.2-1.9,1.2-3.3L147.4,128.3L147.4,128.3z
		 M134.2,119c1.3-1.2,2.8-2.1,4.5-2.8c1.7-0.6,3.5-0.9,5.2-0.9c1.8,0,3.4,0.2,4.7,0.7c1.3,0.5,2.3,1.2,3.1,2.1
		c0.8,0.9,1.4,2.1,1.7,3.6c0.4,1.4,0.5,3.2,0.5,5.1v11h-6.6v-2.3h-0.1c-0.6,0.9-1.4,1.6-2.5,2.1c-1.1,0.5-2.3,0.7-3.7,0.7
		c-0.9,0-1.8-0.1-2.7-0.3c-0.9-0.2-1.8-0.6-2.6-1.1c-0.8-0.5-1.4-1.2-1.9-2.1c-0.5-0.9-0.7-1.9-0.7-3.2c0-1.6,0.4-2.8,1.3-3.8
		c0.9-1,2-1.7,3.3-2.2c1.4-0.5,2.9-0.9,4.5-1c1.7-0.2,3.3-0.3,4.9-0.3v-0.3c0-1.1-0.4-1.9-1.1-2.4c-0.8-0.5-1.7-0.8-2.8-0.8
		c-1,0-2,0.2-3,0.7c-1,0.4-1.8,1-2.4,1.6L134.2,119L134.2,119z"/>
	<path class="st1" d="M173.4,137.8h-7.8l-8.7-21.9h8l4.6,14.2h0.1l4.6-14.2h7.7L173.4,137.8 M196.8,128.3h-0.9c-0.8,0-1.6,0-2.4,0.1
		c-0.8,0.1-1.5,0.2-2.2,0.4c-0.6,0.2-1.2,0.5-1.6,0.9c-0.4,0.4-0.6,0.9-0.6,1.6c0,0.4,0.1,0.8,0.3,1.1c0.2,0.3,0.4,0.5,0.7,0.7
		c0.3,0.2,0.6,0.3,1,0.4c0.4,0.1,0.7,0.1,1.1,0.1c1.5,0,2.6-0.4,3.4-1.2c0.8-0.8,1.2-1.9,1.2-3.3V128.3L196.8,128.3z M183.5,118.9
		c1.3-1.2,2.8-2.2,4.5-2.8c1.7-0.6,3.5-0.9,5.3-0.9c1.9,0,3.4,0.2,4.7,0.7c1.3,0.5,2.3,1.2,3.1,2.1c0.8,1,1.4,2.2,1.7,3.6
		c0.4,1.5,0.6,3.2,0.6,5.2v11h-6.6v-2.3h-0.1c-0.6,0.9-1.4,1.6-2.5,2.1c-1.1,0.5-2.4,0.7-3.7,0.7c-0.9,0-1.8-0.1-2.7-0.4
		c-0.9-0.2-1.8-0.6-2.6-1.1c-0.8-0.5-1.4-1.2-1.9-2.1c-0.5-0.9-0.8-2-0.8-3.3c0-1.6,0.4-2.9,1.3-3.8c0.9-1,2-1.7,3.4-2.2
		c1.4-0.5,2.9-0.9,4.6-1.1c1.7-0.2,3.3-0.3,4.9-0.3v-0.4c0-1.1-0.4-1.9-1.2-2.4c-0.8-0.5-1.7-0.8-2.8-0.8c-1,0-2,0.2-3,0.7
		c-1,0.4-1.8,1-2.5,1.6C187.1,122.8,183.5,118.9,183.5,118.9z M222.1,137.8v-12c0-0.6-0.1-1.2-0.2-1.8c-0.1-0.6-0.3-1-0.5-1.5
		c-0.2-0.4-0.6-0.8-1-1c-0.4-0.2-1-0.4-1.6-0.4c-0.7,0-1.2,0.1-1.7,0.4c-0.5,0.2-0.9,0.6-1.2,1c-0.3,0.4-0.6,0.9-0.7,1.5
		c-0.2,0.6-0.2,1.2-0.2,1.8v11.9h-7.3v-21.9h7v3h0.1c0.3-0.5,0.6-0.9,1-1.4c0.4-0.5,0.9-0.9,1.5-1.2c0.6-0.3,1.2-0.6,1.9-0.8
		c0.7-0.2,1.4-0.3,2.2-0.3c1.5,0,2.7,0.3,3.8,0.8c1,0.5,1.9,1.2,2.5,2c0.6,0.8,1.1,1.8,1.4,2.9c0.3,1.1,0.4,2.2,0.4,3.3v13.6H222.1"
		/>
	<g>
		<path class="st2" d="M40,100.4c-8.1,0-13.5,5.3-13.5,13.3c0,5.4,2.9,10.1,6,15c1.6,2.5,3.1,5,4.4,7.7L40,143l3.1-7.1
			c1.5-3.1,3.5-5.6,5-7.9c2.9-4.6,5.4-8.5,5.4-14.7C53.5,105.9,47.7,100.4,40,100.4z"/>
		<path class="st3" d="M42.8,135.4c-0.1,0.3-0.2,0.5-0.4,0.8c-0.2,0.5-0.5,1-0.7,1.6c-0.6,1.4-1.1,2.9-1.6,4.4h-0.1
			c-0.3-1.3-0.7-2.6-1.2-3.9v0c-0.2-0.5-0.4-1.1-0.7-1.6c-0.1-0.3-0.2-0.5-0.4-0.8c-3.9-8.2-10.2-14.5-10.2-22.2
			c0-6.8,4.5-12.2,12.4-12.2c7.2,0,12.4,5.1,12.4,11.9C52.5,122.3,47.2,126.2,42.8,135.4L42.8,135.4z M53.5,113.3
			c0-7.4-5.8-13-13.5-13c-8.1,0-13.5,5.3-13.5,13.3c0,5.4,2.9,10.1,6,15c1.6,2.5,3.1,5,4.4,7.7l-6.1,3.5V150l9.9,5.6l9.8-5.6v-10.2
			l-6.9-3.9c1.5-3.1,3-5.6,4.5-7.9C51,123.5,53.5,119.5,53.5,113.3z"/>
		<path class="st1" d="M49.5,140.3v9l-8.7,5l-8.8-5l-0.1-0.1v-9l5.5-3.1c0.2,0.5,0.5,1.1,0.7,1.6l-3.5,2.1l6.2,3.6l6.2-3.6l-4.3-2.5
			c0.2-0.5,0.4-1.1,0.7-1.6L49.5,140.3L49.5,140.3z"/>
		<path class="st3" d="M40.2,103.9c-5.6,0-10.2,4.5-10.2,10.2c0,5.6,4.6,10.1,10.2,10.1c5.6,0,10.2-4.5,10.2-10.1
			C50.4,108.5,45.8,103.9,40.2,103.9L40.2,103.9z"/>
		<path class="st4" d="M40.2,123c-5,0-9.1-4-9.1-9c0-5,4.1-9,9.1-9c5,0,9.1,4,9.1,9C49.3,119,45.2,123,40.2,123z"/>
		<path class="st5" d="M33.6,148.2l6.3,3.6v-5.9l-6.2-3.6L33.6,148.2 M44,115.1c-1,0-1.8-0.8-1.8-1.8c0-1,0.8-1.8,1.8-1.8
			c1,0,1.8,0.8,1.8,1.8C45.7,114.3,44.9,115.1,44,115.1z M36.3,115.1c-1,0-1.8-0.8-1.8-1.8c0-1,0.8-1.8,1.8-1.8c1,0,1.8,0.8,1.8,1.8
			C38,114.3,37.2,115.1,36.3,115.1L36.3,115.1z M44.8,110.3h-9.1c-0.8,0-1.6,0.3-2.2,0.9c-0.6,0.6-0.9,1.3-0.9,2.2
			c0,1.7,1.4,3.1,3.1,3.1h9.1c0.8,0,1.6-0.3,2.2-0.9c0.6-0.6,0.9-1.3,0.9-2.2C47.8,111.7,46.5,110.3,44.8,110.3L44.8,110.3z"/>
		<path class="st5" d="M36.3,111.9c-0.4,0-0.7,0.3-0.7,0.7c0,0.4,0.3,0.7,0.7,0.7c0.4,0,0.7-0.3,0.7-0.7
			C37,112.2,36.7,111.9,36.3,111.9 M44,111.9c-0.4,0-0.7,0.3-0.7,0.7c0,0.4,0.3,0.7,0.7,0.7c0.4,0,0.7-0.3,0.7-0.7c0,0,0,0,0,0
			C44.7,112.2,44.4,111.9,44,111.9"/>
	</g>
</g>
</svg>
